<?xml version="1.0" encoding="iso-8859-1"?>
<!-- Uploaded to: SVG Repo, www.svgrepo.com, Generator: SVG Repo Mixer Tools -->
<svg fill="#000000" height="800px" width="800px" version="1.1" id="Layer_1" xmlns="http://www.w3.org/2000/svg" xmlns:xlink="http://www.w3.org/1999/xlink" 
	 viewBox="0 0 462.985 462.985" xml:space="preserve">
<g>
	<g>
		<path d="M429.905,227.385L429.905,227.385l-16.3-24.9c-2.3-3.5-6.9-4.4-10.4-2.2c-3.5,2.3-4.4,6.9-2.2,10.4l8.7,13.3h-87.5
			c0.7-8.6,2.4-17.3,4.2-26.3c5.4-27.3,11.6-58.2-16.4-88.1c-18.9-23.8-61.5-51.3-84.4-66.1c-8.5-5.6-13.5-19.7-10.8-30.1l1.2-3.5
			c1.3-3.9-0.8-8.2-4.7-9.5c-3.9-1.3-8.2,0.8-9.5,4.7l-1.3,3.7c0,0.1-0.1,0.3-0.1,0.4c-2.2,8.1-1.7,17.1,1.1,25.2l-66.9,189.5h-41
			l-15.3-21.7c-2.4-3.4-7.1-4.2-10.5-1.8c-3.4,2.4-4.2,7.1-1.8,10.5l9.2,13.1h-15.4l-14.1-21.5c-2.3-3.5-6.9-4.4-10.4-2.2
			c-3.5,2.3-4.4,6.9-2.2,10.4l13.6,20.8l-13.6,20.8c-2.3,3.5-1.3,8.1,2.2,10.4c1.3,0.8,2.7,1.2,4.1,1.2c2.4,0,4.8-1.2,6.3-3.4
			l14.1-21.5h15.4l-9.2,13.1c-2.4,3.4-1.6,8.1,1.8,10.5c1.3,0.9,2.8,1.4,4.3,1.4c2.4,0,4.7-1.1,6.1-3.2l15.3-21.7h41l67.1,189.4
			c-2.7,8.2-3.3,17.2-1,25.3c0,0.1,0.1,0.3,0.1,0.4l1.3,3.7c1.1,3.1,4,5.1,7.1,5.1c0.8,0,1.6-0.1,2.4-0.4c3.9-1.3,6-5.6,4.7-9.5
			l-1.2-3.5c-2.9-11,2.6-25.8,11.7-31.2c28-16.7,66.1-44.2,83.5-65.1c23.7-28.4,19.1-60.8,15-89.3c-1.2-8.6-2.4-16.9-2.9-25h87.5
			l-8.7,13.3c-2.3,3.5-1.3,8.1,2.2,10.4c1.3,0.8,2.7,1.2,4.1,1.2c2.4,0,4.8-1.2,6.3-3.4l16.3-24.9
			C431.505,233.085,431.505,229.885,429.905,227.385z M298.605,343.685c-15.6,18.7-51.8,45.3-79.6,61.8c-2.7,1.6-5.2,3.7-7.5,6
			l-60.9-172.5h156.6c0.5,9.1,1.8,18.2,3,27.1v0C314.205,293.985,318.005,320.385,298.605,343.685z M311.705,194.685
			c-1.9,9.5-3.8,19.3-4.5,29.2h-156.6l61-172.7h0c1.8,1.9,3.8,3.5,5.9,4.9c22.3,14.4,63.8,41.1,81,63c0.1,0.2,0.3,0.4,0.4,0.5
			C321.805,143.885,317.105,167.385,311.705,194.685z"/>
	</g>
</g>
</svg>